<?xml version="1.0" encoding="UTF-8" standalone="no"?>
<!-- Created with Inkscape (http://www.inkscape.org/) -->

<svg
   xmlns:dc="http://purl.org/dc/elements/1.1/"
   xmlns:cc="http://creativecommons.org/ns#"
   xmlns:rdf="http://www.w3.org/1999/02/22-rdf-syntax-ns#"
   xmlns:svg="http://www.w3.org/2000/svg"
   xmlns="http://www.w3.org/2000/svg"
   xmlns:sodipodi="http://sodipodi.sourceforge.net/DTD/sodipodi-0.dtd"
   xmlns:inkscape="http://www.inkscape.org/namespaces/inkscape"
   id="svg4136"
   version="1.1"
   inkscape:version="0.91 r13725"
   width="1000"
   height="1000"
   viewBox="0 0 1000 1000"
   sodipodi:docname="Bird.svg">
  <metadata
     id="metadata4142">
    <rdf:RDF>
      <cc:Work
         rdf:about="">
        <dc:format>image/svg+xml</dc:format>
        <dc:type
           rdf:resource="http://purl.org/dc/dcmitype/StillImage" />
        <dc:title></dc:title>
      </cc:Work>
    </rdf:RDF>
  </metadata>
  <defs
     id="defs4140">
    <filter
       inkscape:label="Drop Shadow"
       inkscape:menu="Blurs"
       inkscape:menu-tooltip="Blur the contents of objects, preserving the outline and adding progressive transparency at edges"
       style="color-interpolation-filters:sRGB"
       id="filter4316">
      <feGaussianBlur
         stdDeviation="5"
         result="fbSourceGraphic"
         id="feGaussianBlur4318" />
      <feGaussianBlur
         stdDeviation="0.01"
         in="SourceGraphic"
         result="result1"
         id="feGaussianBlur4320" />
      <feComposite
         in2="result1"
         operator="arithmetic"
         in="fbSourceGraphic"
         k2="0.5"
         k3="0.5"
         result="result2"
         id="feComposite4322"
         k1="0"
         k4="0" />
      <feBlend
         in2="fbSourceGraphic"
         mode="normal"
         result="fbSourceGraphic"
         id="feBlend4324" />
      <feColorMatrix
         result="fbSourceGraphicAlpha"
         in="fbSourceGraphic"
         values="0 0 0 -1 0 0 0 0 -1 0 0 0 0 -1 0 0 0 0 1 0"
         id="feColorMatrix4326" />
      <feGaussianBlur
         id="feGaussianBlur4328"
         result="result6"
         stdDeviation="3"
         in="fbSourceGraphic" />
      <feColorMatrix
         id="feColorMatrix4330"
         values="1 0 0 0 0 0 1 0 0 0 0 0 1 0 0 0 0 0 1 0 "
         result="result7"
         in="fbSourceGraphic" />
      <feComposite
         id="feComposite4332"
         in2="result7"
         operator="in"
         in="result6"
         result="fbSourceGraphic" />
      <feColorMatrix
         result="fbSourceGraphicAlpha"
         in="fbSourceGraphic"
         values="0 0 0 -1 0 0 0 0 -1 0 0 0 0 -1 0 0 0 0 1 0"
         id="feColorMatrix4704" />
      <feFlood
         id="feFlood4706"
         flood-opacity="0.498039"
         flood-color="rgb(214,189,138)"
         result="flood"
         in="fbSourceGraphic" />
      <feComposite
         id="feComposite4708"
         in2="fbSourceGraphic"
         in="flood"
         operator="in"
         result="composite1" />
      <feGaussianBlur
         id="feGaussianBlur4710"
         in="composite1"
         stdDeviation="17.1875"
         result="blur" />
      <feOffset
         id="feOffset4712"
         dx="21.4"
         dy="19"
         result="offset" />
      <feComposite
         id="feComposite4714"
         in2="offset"
         in="fbSourceGraphic"
         operator="over"
         result="composite2" />
    </filter>
  </defs>
  <sodipodi:namedview
     pagecolor="#ffffff"
     bordercolor="#666666"
     borderopacity="1"
     objecttolerance="10"
     gridtolerance="10"
     guidetolerance="10"
     inkscape:pageopacity="0"
     inkscape:pageshadow="2"
     inkscape:window-width="1680"
     inkscape:window-height="987"
     id="namedview4138"
     showgrid="false"
     inkscape:zoom="0.40835509"
     inkscape:cx="718.56153"
     inkscape:cy="605.41253"
     inkscape:window-x="-8"
     inkscape:window-y="-8"
     inkscape:window-maximized="1"
     inkscape:current-layer="svg4136" />
  <path
     style="fill:#dead75;fill-opacity:1;filter:url(#filter4316)"
     d="m 967.42684,1878.1914 c -86.95845,-8.1638 -176.09809,-8.9582 -259.53981,-36.4605 -31.83524,-7.2654 -62.61487,-25.006 -107.3762,-40.1346 -62.4341,-27.5376 -120.20486,-65.282 -181.07158,-101.9159 C 304.98827,1629.154 226.33493,1513.0711 159.71838,1398.8989 69.822885,1228.7286 24.621735,1028.9679 63.045875,837.49997 66.099925,754.30136 106.37847,678.19191 131.03455,599.93328 165.92906,531.35981 196.24951,458.85154 242.67132,397.22144 330.68408,287.10297 446.70583,205.52308 569.4518,138.37806 640.07696,99.409834 719.19252,79.619543 795.49173,56.408923 856.35038,42.131922 921.27075,39.988831 984.88584,37.779025 c 89.84596,-3.785069 182.75046,2.96777 269.99996,29.771111 94.6916,24.818945 181.6931,73.586744 265.8123,122.295754 51.5743,33.60103 96.6359,77.1138 134.3783,125.77906 99.8529,107.43885 180.0355,237.58026 204.9535,384.00043 32.3187,71.74204 24.3941,152.19846 42.8381,227.53082 8.106,104.4089 -16.0751,208.0839 -42.3572,308.3071 -15.3965,45.4488 -34.7652,112.9705 -68.145,159.4836 -40.2867,73.8567 -76.613,150.5833 -141.4546,206.8391 -118.5521,112.4948 -257.3802,216.4307 -421.6504,246.3394 -84.878,23.3986 -174.8152,20.9767 -261.83396,30.066 z m 29.9987,-19.429 c 122.89476,-6.7339 251.67686,-14.287 362.81686,-71.0883 84.9259,-68.918 66.9112,-222.9466 -36.6066,-264.7758 -32.0138,-27.6439 -192.7117,-63.245 -106.3962,4.5816 45.8391,98.2195 -44.5734,198.6138 -130.4788,236.9609 -80.2718,44.4735 -176.21308,49.5518 -263.38977,26.6046 -19.57023,-21.5833 -106.96661,44.4216 -64.02405,48.193 78.10473,15.0412 158.60793,21.6032 238.07856,19.524 z m -275.10221,-35.8026 c 107.22478,-52.9678 166.30141,-165.8485 235.06941,-258.3695 -93.91224,48.7308 -167.13986,129.6145 -263.25491,175.7222 -31.33458,30.6437 -145.18355,38.1849 -44.252,61.8963 23.60526,5.5952 48.41635,22.9284 72.4375,20.751 z m 240.61181,-30.5065 c 110.35106,-20.641 240.80206,-87.3452 254.67326,-211.2113 5.2805,-106.8801 -117.0936,-102.9323 -183.0128,-60.8384 -97.12289,55.0789 -134.28741,171.3432 -216.16874,243.6563 2.72958,35.4933 108.65578,22.9784 144.50828,28.3934 z m 436.53406,-21.5942 c 89.0334,-22.2393 119.2827,-128.8079 66.222,-199.6091 -42.7782,-80.4873 -127.8592,-133.1312 -219.7053,-129.8584 -34.0109,1.2247 -181.6281,25.1927 -74.7718,34.7271 108.9084,-5.887 243.6574,51.697 257.6224,172.3985 2.7223,39.0438 -16.9902,102.0447 -29.3673,122.3419 z m -807.64047,-2.0473 c 89.20587,-17.0275 162.84763,-75.9028 235.5571,-126.965 34.18492,-21.9249 84.29535,-81.2638 10.78099,-31.848 -98.08421,47.4798 -209.40999,72.2417 -318.281,59.4376 -50.0504,8.5542 -177.85904,-30.0262 -155.02743,-32.2989 56.78613,58.6165 135.69576,87.5659 203.77743,130.9659 l 12.50001,2.0301 10.6929,-1.3217 0,0 z m 911.89177,-62.2935 c 39.3559,-51.4466 177.8925,-95.0789 136.1877,-165.8762 -72.4428,-48.8084 -148.4337,-106.6318 -238.9826,-113.7582 -50.4166,-4.6692 -174.566,1.859 -58.1804,18.944 94.8977,40.0804 183.0091,144.3892 159.0091,252.9221 -1.1376,0.8814 -4.9096,14.582 1.9662,7.7683 z M 648.43333,1658.125 c 86.3762,-11.5692 167.50494,-42.6407 242.8519,-85.7001 93.00341,-45.68 193.33567,-88.192 258.41397,-172.896 85.7643,-94.5382 -49.1172,41.5301 -86.4847,56.0961 -90.67636,68.3476 -206.80938,94.7767 -317.89787,104.1246 C 617.98577,1553.4827 501.27618,1485.4728 410.00185,1400 c -43.92928,-53.8093 -60.08883,-126.3061 -62.63444,-194.375 -53.61925,39.2449 -78.44314,66.5017 -113.76065,84.2131 -9.05707,69.4593 -11.24778,153.1592 26.90408,219.8486 37.63465,57.5116 91.65461,108.3739 158.81803,128.4868 66.28575,25.6467 141.8047,20.511 212.1557,23.1365 l 16.94876,-3.1847 0,-3e-4 z m 131.4525,-111.2447 c 128.60643,-13.6155 255.31077,-60.5559 349.85427,-151.1483 44.7519,-35.5994 125.0718,-175.352 128.8957,-150.6434 -79.7166,77.0669 -177.1512,144.0121 -286.63386,168.774 -120.18709,14.2284 -249.34434,7.3125 -356.49111,-53.2016 -65.0607,-32.5232 -143.75035,-71.2457 -162.67283,-148.2678 -46.93245,-93.7525 -3.35863,-205.0234 49.37204,-286.80031 C 569.91843,834.17877 683.96527,797.97822 768.63583,726.08983 802.77906,716.00028 665.23166,806.14054 665.90943,805.2205 569.96768,856.10341 480.59618,933.79137 457.43147,1045 c -41.05278,102.0554 5.79373,231.8076 106.88496,278.4146 83.6232,50.2263 176.79305,84.0141 275.1539,86.1043 102.65488,9.4436 206.58787,-15.483 290.64197,-75.8663 52.6767,-34.3633 119.543,-77.6928 142.0865,-130.4565 -71.8501,57.1425 -152.7362,109.2608 -246.688,116.1438 -110.71787,33.2982 -235.6996,9.1812 -333.93697,-48.7149 -96.04225,-63.6747 -151.79987,-189.5826 -108.563,-300.82749 34.88251,-108.15419 128.95845,-176.99806 209.0625,-250.22423 22.16367,-24.87348 117.79892,-118.21038 52.4324,-38.38832 -26.84366,37.65102 -109.67807,75.87523 -25.9487,101.21346 64.48532,45.81356 76.65307,156.0653 105.8907,199.96168 102.60477,-67.70179 235.11777,-105.29531 295.14677,-222.0462 5.9822,-52.4918 51.927,-60.90289 21.8459,-5.13634 -33.3124,71.02352 -102.7599,128.53165 -166.2905,159.19741 80.9358,-31.32433 155.7346,-88.44085 195.4612,-166.2915 4.8315,59.37202 -90.096,126.11697 -147.6003,157.42433 -68.7316,40.55539 -151.40466,56.73832 -212.66767,108.7877 -61.57565,33.1081 -115.06006,147.0572 -84.0086,182.804 -17.0321,-93.9909 66.8932,-161.5606 134.28921,-210.84958 101.86116,-47.34185 219.71576,-81.46028 329.17866,-75.68536 -121.8081,17.1686 -252.8978,31.10301 -354.91657,106.42234 -66.28945,49.1883 -130.27714,136.3476 -81.9642,219.3896 30.42126,59.0157 179.56407,88.8647 192.83617,47.0604 -33.2733,-97.9408 102.0411,-139.5352 176.628,-119.8031 102.3032,2.5516 -148.8375,13.215 -38.8041,59.4912 98.2613,-3.9087 -82.6493,47.7658 -38.6074,-36.519 -3.94,-52.7123 -164.80286,73.7148 -67.639,107.7166 86.3106,-16.3127 160.5155,-71.629 224.5736,-127.7601 61.0349,-74.905 45.9524,-178.36325 25.4147,-265.62503 8.187,-23.43082 34.5789,160.61373 29.209,37.15836 14.2736,-90.90657 -44.5736,-167.27612 -99.7718,-232.16006 -16.4303,-79.04804 -18.8564,34.57889 -64.9609,27.6181 -33.7293,25.12505 -57.001,48.68743 -42.8696,-18.26104 -15.6667,-112.44466 0.033,145.65554 -32.6898,33.68561 1.1888,-103.9504 -32.6907,127.99299 -33.6624,9.06023 3.6218,-52.03125 -6.374,-75.41965 -26.2489,-12.17647 -10.5408,35.58387 -93.04126,146.3136 -59.79916,45.90315 25.52306,-57.98603 33.63216,-144.42078 93.46836,-174.88365 62.6845,-8.42961 165.9166,-12.13837 106.8998,-101.00028 -17.576,-29.89287 -63.8094,-65.71304 6.7376,-40.21012 38.1025,16.78723 48.5397,76.50427 93.4483,78.07391 42.8318,-20.31731 46.9605,-54.09689 80.0824,-90.87998 47.4098,-15.44918 106.8379,-5.93568 156.4603,8.52138 35.5005,13.82581 133.6591,71.9528 40.009,40.44478 -73.3193,-28.8862 51.3428,56.52986 -29.0465,29.49048 -28.5914,-26.5615 -95.4557,-37.72076 -29.091,3.87121 19.9424,53.51598 -76.7263,-25.78199 -46.3636,42.93157 -51.7283,-23.90933 -17.4489,33.62811 -62.355,25.81796 5.9469,47.71617 -80.4488,-31.72997 -37.7538,39.5325 12.9028,88.34943 18.7516,176.24224 20.7253,265.02063 3.7715,78.46343 -10.247,157.49136 -52.1058,224.62896 -10.0076,37.6694 -114.6221,165.1665 -23.2947,84.2666 29.4416,-25.8317 169.0475,-61.2301 56.2343,-46.3658 -93.7633,3.9675 109.8231,-28.9098 96.6457,-25.2198 113.9503,-24.4622 200.7351,-166.61799 136.4691,-273.33322 -78.7377,-72.99806 57.5755,30.91569 31.6711,81.27717 -3.6095,86.02545 -61.1859,164.55705 -140.2676,197.30085 76.6895,-14.5803 159.1181,2.0842 224.7346,-48.5508 111.4462,-69.8374 164.1884,-209.35539 141.898,-337.03513 -6.1658,-63.62096 -53.7154,-184.89331 -114.2954,-178.88359 -14.2984,138.3921 -131.1568,247.2313 -264.9493,270.51528 -49.5208,20.79954 -94.8344,6.90064 -20.4719,-4.40471 137.7478,-18.37897 262.466,-130.31652 272.9357,-272.60112 9.3018,-45.87042 23.0031,-137.51884 -25.1376,-184.3543 C 1663.7914,339.05616 1607.4626,278.04087 1546.1132,225.62466 1417.0775,139.70758 1270.475,72.8453 1114.8858,57.684142 c -69.1892,-11.8472 136.7342,198.048588 51.091,124.214338 95.0888,42.2215 170.2414,130.9839 173.4535,238.29462 20.5152,45.34816 -40.2687,166.72361 -15.0846,56.23762 8.3043,-104.71518 -36.6903,-221.90904 -138.9739,-264.55575 -10.6158,11.01967 -43.4387,-43.72365 -31.6509,23.32449 -13.5954,84.20587 113.6692,102.74249 125.856,186.05051 32.1083,37.14207 21.2999,196.21968 4.0016,75.625 -2.0338,-76.0132 -86.6425,-197.10185 -144.7612,-188.49916 -31.1711,99.17258 -100.7334,182.77212 -176.48726,251.5143 -45.31276,32.5855 -117.84556,101.15406 -176.11261,141.98486 -111.14694,87.887 -269.36556,114.79513 -349.86585,240.02371 -18.61126,78.86052 -15.10901,170.23692 -67.27685,242.29012 -25.56844,104.252 33.61537,215.3559 125.10794,267.2195 84.44412,55.9333 181.23501,105.8869 285.70316,95.472 z m 909.50937,-8.9833 c 52.7792,-70.8543 90.1159,-153.1956 131.0625,-231.022 68.5255,-99.0621 -68.7214,-124.803 -138.0719,-140.0564 -94.95,-20.2143 -194.6426,4.9763 -286.1616,31.2964 -79.8724,26.888 -149.1841,82.0203 -191.4215,154.5173 -23.1246,40.5479 -157.2175,136.3322 -37.9574,89.2721 76.4516,-18.053 154.3556,-38.1379 233.9332,-33.5073 95.6978,20.7175 196.3478,56.0859 265.6685,128.5064 6.0453,5.5123 16.5683,23.3522 22.9482,0.9935 z m -107.4376,-323.6309 c -29.639,-37.2248 52.5839,-10.2172 0,0 z m -1349.82932,258.408 c -31.94109,-50.2449 -26.11847,-194.1794 -14.72502,-176.5663 -103.27567,39.369 -27.83674,123.5808 14.38411,180.7242 l 0.34091,-4.1579 0,0 z m 724.63256,-151.112 c 53.79136,-8.6584 -129.35985,-47.5213 -81.25001,-2.1077 26.81681,4.8268 54.19766,2.175 81.25001,2.1077 z m -107.75541,-13.011 c 70.07165,-2.9632 -49.266,-116.8133 -57.4002,-90.6567 -34.25145,36.5343 -170.15848,11.489 -64.1419,59.8227 36.32126,12.5183 83.87085,42.2011 121.5421,30.834 z m -682.30327,-5.5895 c 17.11924,-34.8969 57.72204,-93.1474 15.80535,-18.7556 44.23387,21.1215 46.33189,-122.7382 -9.60388,-150.8232 -26.89105,-37.731 -88.664935,-93.6443 -103.291045,-105.3535 8.5068,93.7058 29.59239,188.1502 67.581055,273.9128 9.22904,-3.794 19.54445,8.9445 29.50852,1.0195 z m 79.63946,-38.7811 C 324.50732,1235.2891 350.64789,1132.0515 294.26416,1070 237.66855,983.17381 122.80751,951.89612 81.217235,851.87497 c -37.826646,97.54165 3.50354,194.48323 85.011745,253.38303 48.78267,42.4113 74.67709,126.4583 62.92514,170.5144 l 17.1875,-11.5919 0,0 z m 470.97841,-35.4756 c 116.46799,8.6681 64.30002,-126.3095 135.10515,-179.5023 75.41268,-55.64295 -37.21167,-147.64543 -95.11795,-167.04069 68.46609,43.65139 108.13167,135.96519 61.9536,208.78329 -36.89402,59.9643 -120.10468,54.1305 -184.4044,43.5433 -98.01151,-62.8571 11.49645,129.9069 68.1544,95.3268 l 14.3092,-1.1104 0,0 z m 1131.67627,-5.8924 c 29.7259,-98.198 49.1096,-202.9328 39.7494,-305.93753 -9.5923,-43.63746 -17.4367,-111.65735 -19.2623,-22.5 -18.3071,114.40853 -96.4542,223.79003 -211.4726,256.05373 63.782,22.5392 141.3384,25.5759 190.9855,72.3838 z M 339.61436,1197.2439 c 54.29756,-60.6139 84.23234,-150.3771 69.21146,-229.30973 -7.42237,-85.19925 -78.64636,-154.35707 -147.46071,-199.8092 -50.90995,-11.55817 -156.8021,-95.20654 -137.74796,-93.75 -21.68112,64.94561 -65.772295,143.19861 -10.11774,205.8093 61.19555,90.72498 187.74497,124.87023 219.48369,237.31573 21.26452,12.116 -20.69051,112.2659 6.63126,79.7439 z m 367.14647,-70.9905 C 797.50178,1136.9258 856.80442,1028 805.01573,955.62497 772.96722,915.08055 683.48041,812.39644 641.54543,881.74333 601.83155,934.78334 556.80051,1038.7786 593.16703,1090 c 14.11035,35.8778 79.1863,37.6412 113.5938,36.2534 z m 191.8114,-124.809 c 0.52704,-72.65428 -32.7908,-149.90883 -82.7489,-204.26959 -37.43624,-72.03469 -136.4599,78.04733 -133.0208,47.91196 89.2884,17.96687 186.52518,65.87506 211.5645,160.53813 l 4.2052,-4.1805 0,0 z M 426.52638,935.24674 c 28.12434,-35.64086 99.37489,-102.87065 21.92298,-47.09647 -16.59674,2.66378 -49.56177,58.7461 -21.92298,47.09647 z m -12.67282,-30.55927 c 39.39174,-25.45154 13.02583,-109.03929 -17.78,-130.9041 -11.9965,39.6089 -21.36164,115.40644 17.78,130.9041 z m 44.38047,-38.14297 c 31.48155,-21.93403 124.99992,-53.4088 32.71705,-55.98739 -45.0841,-17.92512 -80.25221,-33.37346 -49.83756,32.43061 4.79666,1.17779 5.50647,32.45041 17.12051,23.55678 z m -86.53214,-39.98203 c 25.30156,-52.09371 -21.88888,-102.84294 -43.12661,-131.25 -25.47959,49.73647 2.32392,136.4636 42.85416,146.47851 l 0.27246,-15.22851 -1e-5,0 z m 190.61034,-17.85225 c 70.53453,-25.14858 135.59506,-63.87675 191.5536,-113.36543 87.3178,-59.15396 98.16475,-186.58078 54.747,-275.93743 -36.8335,-86.8354 -143.22188,-87.79297 -171.5881,6.72872 -49.05526,74.25244 -33.86868,177.7682 31.2934,237.61389 35.29191,26.72711 74.42347,76.12364 10.1473,29.56288 -64.72469,-58.42561 -108.27227,-148.22678 -72.14908,-234.51367 4.20291,-53.36196 87.82747,-149.74577 89.19448,-126.65682 -75.97729,-28.27309 -173.1036,-31.22905 -241.5007,15.61152 -94.27097,75.54342 -151.67685,205.54866 -118.29214,324.74609 23.07387,96.05664 129.22464,121.06712 212.29283,136.66401 l 7.5,1.33664 6.80141,-1.7904 0,0 z m -254.5262,-42.46025 c 13.3718,-86.79937 -2.09687,-173.60292 22.21388,-260 20.40958,-71.38917 71.49743,-128.09328 127.43067,-174.44744 -80.66611,11.62025 -155.87903,54.70581 -219.36642,106.00475 -39.56545,63.92667 -90.6227,130.58019 -96.92494,207.46279 21.97327,72.57893 106.98378,87.67927 159.37224,132.38223 l 7.66582,3.79097 -0.391,-15.1933 -2.5e-4,0 z m 467.2134,-72.5 C 891.34392,615.26321 954.60964,443.51231 881.22933,315.89008 845.71025,236.84856 775.04575,164.67462 683.01083,163.09443 c -80.19546,-8.82262 -154.44442,31.34271 -224.67775,64.43343 -73.08441,45.30331 -139.08729,104.07182 -192.14377,171.84711 74.16258,-51.33346 160.03256,-83.62142 250.00785,-91.83142 114.48155,-25.37976 253.23181,13.65 310.46917,122.45642 37.86158,88.39438 21.18576,208.70423 -56.0987,266.875 l 4.4318,-3.125 0,0 z M 1831.2178,640.51419 c -16.0059,-46.10151 -46.6839,-148.65927 -76.2966,-156.13922 -30.7344,85.3077 42.9843,110.69535 79.0799,170.6349 l -2.7833,-14.49568 0,0 z M 872.24033,619.77522 C 952.81423,560.92349 1013.9962,477.88588 1039.8858,381.13283 1070.8002,287.57259 1086.5495,154.70271 991.08364,93.040461 920.52218,62.462894 842.15414,52.537077 769.59393,84.350021 697.30489,98.458176 589.06187,142.52957 551.22877,173.73524 c 103.65084,-49.48618 241.61085,-21.14934 306.00056,77.51473 86.13605,103.50387 87.14086,259.49087 8.2815,367.41248 -28.43317,26.12299 7.32717,5.7845 6.7295,1.11277 z M 1000.9077,510.31247 c 83.0716,-94.0729 168.3941,-216.96156 136.4803,-349.0625 C 1110.5191,94.434956 1030.7025,44.629525 959.58904,59.317777 952.066,70.46025 1075.2152,109.22531 1066.566,172.79685 c 29.4498,100.12386 -8.8906,206.43882 -48.3954,298.41017 -2.1712,8.06835 -49.32366,73.22469 -17.2629,39.10545 z"
     id="path4182"
     inkscape:connector-curvature="0"
     transform="matrix(0.51657438,0,0,0.51657438,-4.6285977,5.3799682)" />
</svg>
